# xmcd CD database file generated by Grip 2.95
# 
# Track frame offsets:
#       150
#       20510
#       68817
#       80742
#       113220
#       125897
#       140475
#       147820
#       151130
#       181087
#       194380
#       201445
#       206112
#       215430
#       218312
#       223410
#       245212
#       257072
#       263375
#       285787
#       292092
# 
# Disc length: 4019 seconds
# 
# Revision: 3
# Processed by: cddbd v1.4PL0 Copyright (c) Steve Scherf et al.
# Submitted via: Grip 2.95
# 
DISCID=500fb115
DTITLE=Jerry Portnoy - Harmonica Masterclass - disc 2
DYEAR=1900
DGENRE=
TTITLE0=Intro to Bending Notes
TTITLE1=Bending Technique
TTITLE2=Bends with Syncopating Chords
TTITLE3=Bending Exercises
TTITLE4=Upper Register Blow Bends
TTITLE5=Transitions
TTITLE6=2 Draw vs. 3 Blow
TTITLE7=Intro to Special Effects
TTITLE8=Vibrato
TTITLE9=Warbles
TTITLE10=Flutters
TTITLE11=Growls
TTITLE12=Barks
TTITLE13=Kiss Pops
TTITLE14=Rips and Glisses
TTITLE15=Double and Triple Tonguing
TTITLE16=Turnaround Figure
TTITLE17=Tongue Switching
TTITLE18=Special Chords
TTITLE19=Shaping Notes
TTITLE20=Use of Hands
EXTD=
EXTT0=
EXTT1=
EXTT2=
EXTT3=
EXTT4=
EXTT5=
EXTT6=
EXTT7=
EXTT8=
EXTT9=
EXTT10=
EXTT11=
EXTT12=
EXTT13=
EXTT14=
EXTT15=
EXTT16=
EXTT17=
EXTT18=
EXTT19=
EXTT20=
PLAYORDER=
